<?xml version="1.0" standalone="no"?>
 <!DOCTYPE svg PUBLIC "-//W3C//DTD SVG 1.1//EN" 
 "http://www.w3.org/Graphics/SVG/1.1/DTD/svg11.dtd"> 
<svg
  xmlns:svg="http://www.w3.org/2000/svg"
  xmlns="http://www.w3.org/2000/svg"
  xmlns:xlink="http://www.w3.org/1999/xlink"
  version="1.1"
  width="105.3846mm" height="90.4494mm" viewBox="0.0000 0.0000 105.3846 90.4494">
<title>SVG Image created as switch-plate-Edge_Cuts.svg date 2024/11/05 12:21:05 </title>
  <desc>Image generated by PCBNEW </desc>
<g style="fill:#000000; fill-opacity:1.0000;stroke:#000000; stroke-opacity:1.0000;
stroke-linecap:round; stroke-linejoin:round;"
 transform="translate(0 0) scale(1 1)">
</g>
<g style="fill:none; 
stroke:#000000; stroke-width:0.0500; stroke-opacity:1; 
stroke-linecap:round; stroke-linejoin:round;">
<path d="M58.9809 0.3552 A105.0759 105.0759 0.0 0 0 14.8214 9.6814" />
<path d="M2.0000 74.6758
L14.2481 67.5078
" />
<path d="M105.1270 32.4612
L105.1270 37.5158
" />
<path d="M105.1312 19.3650
L105.1270 32.4612
" />
<path d="M104.7214 70.2815 A0.7467 0.7467 0.0 0 0 105.1312 69.6150" />
<path d="M77.7558 76.4449 A62.0705 62.0705 0.0 0 0 104.7214 70.2814" />
<path d="M9.2624 89.5918 A0.7500 0.7500 0.0 0 0 10.2869 89.8664" />
<path d="M105.1270 49.9618
L105.1270 55.0418
" />
<path d="M17.7562 85.5540
L10.2869 89.8664
" />
<path d="M14.3814 10.3642
L14.5000 66.6758
" />
<path d="M104.9114 18.8344 A66.3203 66.3203 0.0 0 0 58.9809 0.3552" />
<path d="M14.2481 67.5079 A1.5000 1.5000 0.0 0 0 14.5000 66.6758" />
<path d="M1.5000 76.1758
L9.2624 89.5918
" />
<path d="M51.7500 76.4449 A67.9851 67.9851 0.0 0 0 17.7562 85.5540" />
<path d="M105.1270 37.5158
L105.1270 49.9618
" />
<path d="M105.1312 19.3650 A0.7504 0.7504 0.0 0 0 104.9114 18.8344" />
<path d="M14.8214 9.6815 A0.7500 0.7500 0.0 0 0 14.3814 10.3642" />
<path d="M2.0000 74.6758 A1.1180 1.1180 0.0 0 0 1.5000 76.1758" />
<path d="M77.7558 76.4449
L51.7500 76.4449
" />
<path d="M105.1312 69.6150
L105.1270 55.0418
" />
<path style="fill:none; 
stroke:#000000; stroke-width:0.1200; stroke-opacity:1; 
stroke-linecap:round; stroke-linejoin:round;fill:none"
d="M 34.7572,8.9895
48.7572,8.9895
48.7572,22.9895
34.7572,22.9895
Z" /> 
<path style="fill:none; 
stroke:#000000; stroke-width:0.1200; stroke-opacity:1; 
stroke-linecap:round; stroke-linejoin:round;fill:none"
d="M 88.7563,37.4900
102.7563,37.4900
102.7563,51.4900
88.7563,51.4900
Z" /> 
<path style="fill:none; 
stroke:#000000; stroke-width:0.1200; stroke-opacity:1; 
stroke-linecap:round; stroke-linejoin:round;fill:none"
d="M 52.7562,19.4895
66.7562,19.4895
66.7562,33.4895
52.7562,33.4895
Z" /> 
<path style="fill:none; 
stroke:#000000; stroke-width:0.1200; stroke-opacity:1; 
stroke-linecap:round; stroke-linejoin:round;fill:none"
d="M 70.7562,25.4900
84.7562,25.4900
84.7562,39.4900
70.7562,39.4900
Z" /> 
<path style="fill:none; 
stroke:#000000; stroke-width:0.1200; stroke-opacity:1; 
stroke-linecap:round; stroke-linejoin:round;fill:none"
d="M 88.7563,20.4900
102.7563,20.4900
102.7563,34.4900
88.7563,34.4900
Z" /> 
<path style="fill:none; 
stroke:#000000; stroke-width:0.1200; stroke-opacity:1; 
stroke-linecap:round; stroke-linejoin:round;fill:none"
d="M 70.7562,42.4900
84.7562,42.4900
84.7562,56.4900
70.7562,56.4900
Z" /> 
<path style="fill:none; 
stroke:#000000; stroke-width:0.1200; stroke-opacity:1; 
stroke-linecap:round; stroke-linejoin:round;fill:none"
d="M 88.7562,54.4900
102.7562,54.4900
102.7562,68.4900
88.7562,68.4900
Z" /> 
<path style="fill:none; 
stroke:#000000; stroke-width:0.1200; stroke-opacity:1; 
stroke-linecap:round; stroke-linejoin:round;fill:none"
d="M 52.7563,2.4895
66.7563,2.4895
66.7563,16.4895
52.7563,16.4895
Z" /> 
<path style="fill:none; 
stroke:#000000; stroke-width:0.1200; stroke-opacity:1; 
stroke-linecap:round; stroke-linejoin:round;fill:none"
d="M 16.7562,28.4895
30.7562,28.4895
30.7562,42.4895
16.7562,42.4895
Z" /> 
<path style="fill:none; 
stroke:#000000; stroke-width:0.1200; stroke-opacity:1; 
stroke-linecap:round; stroke-linejoin:round;fill:none"
d="M 40.4304,75.1390
26.9075,78.7624
23.2840,65.2395
36.8070,61.6160
Z" /> 
<path style="fill:none; 
stroke:#000000; stroke-width:0.1200; stroke-opacity:1; 
stroke-linecap:round; stroke-linejoin:round;fill:none"
d="M 16.7562,11.4895
30.7562,11.4895
30.7562,25.4895
16.7562,25.4895
Z" /> 
<path style="fill:none; 
stroke:#000000; stroke-width:0.1200; stroke-opacity:1; 
stroke-linecap:round; stroke-linejoin:round;fill:none"
d="M 34.7573,42.9895
48.7573,42.9895
48.7573,56.9895
34.7573,56.9895
Z" /> 
<path style="fill:none; 
stroke:#000000; stroke-width:0.1200; stroke-opacity:1; 
stroke-linecap:round; stroke-linejoin:round;fill:none"
d="M 70.7563,8.4900
84.7563,8.4900
84.7563,22.4900
70.7563,22.4900
Z" /> 
<path style="fill:none; 
stroke:#000000; stroke-width:0.1200; stroke-opacity:1; 
stroke-linecap:round; stroke-linejoin:round;fill:none"
d="M 22.8815,80.4303
10.7571,87.4303
3.7571,75.3060
15.8815,68.3060
Z" /> 
<path style="fill:none; 
stroke:#000000; stroke-width:0.1200; stroke-opacity:1; 
stroke-linecap:round; stroke-linejoin:round;fill:none"
d="M 34.7573,25.9895
48.7573,25.9895
48.7573,39.9895
34.7573,39.9895
Z" /> 
<path style="fill:none; 
stroke:#000000; stroke-width:0.1200; stroke-opacity:1; 
stroke-linecap:round; stroke-linejoin:round;fill:none"
d="M 52.7562,36.4895
66.7562,36.4895
66.7562,50.4895
52.7562,50.4895
Z" /> 
<path style="fill:none; 
stroke:#000000; stroke-width:0.1200; stroke-opacity:1; 
stroke-linecap:round; stroke-linejoin:round;fill:none"
d="M 16.7562,45.4895
30.7562,45.4895
30.7562,59.4895
16.7562,59.4895
Z" /> 
</g>
<g style="fill:none; 
stroke:#000000; stroke-width:0.0500; stroke-opacity:1; 
stroke-linecap:round; stroke-linejoin:round;">
<path d="M58.9809 0.3552 A105.0759 105.0759 0.0 0 0 14.8214 9.6814" />
<path d="M2.0000 74.6758
L14.2481 67.5078
" />
<path d="M105.1270 32.4612
L105.1270 37.5158
" />
<path d="M105.1312 19.3650
L105.1270 32.4612
" />
<path d="M104.7214 70.2815 A0.7467 0.7467 0.0 0 0 105.1312 69.6150" />
<path d="M77.7558 76.4449 A62.0705 62.0705 0.0 0 0 104.7214 70.2814" />
<path d="M9.2624 89.5918 A0.7500 0.7500 0.0 0 0 10.2869 89.8664" />
<path d="M105.1270 49.9618
L105.1270 55.0418
" />
<path d="M17.7562 85.5540
L10.2869 89.8664
" />
<path d="M14.3814 10.3642
L14.5000 66.6758
" />
<path d="M104.9114 18.8344 A66.3203 66.3203 0.0 0 0 58.9809 0.3552" />
<path d="M14.2481 67.5079 A1.5000 1.5000 0.0 0 0 14.5000 66.6758" />
<path d="M1.5000 76.1758
L9.2624 89.5918
" />
<path d="M51.7500 76.4449 A67.9851 67.9851 0.0 0 0 17.7562 85.5540" />
<path d="M105.1270 37.5158
L105.1270 49.9618
" />
<path d="M105.1312 19.3650 A0.7504 0.7504 0.0 0 0 104.9114 18.8344" />
<path d="M14.8214 9.6815 A0.7500 0.7500 0.0 0 0 14.3814 10.3642" />
<path d="M2.0000 74.6758 A1.1180 1.1180 0.0 0 0 1.5000 76.1758" />
<path d="M77.7558 76.4449
L51.7500 76.4449
" />
<path d="M105.1312 69.6150
L105.1270 55.0418
" />
<path style="fill:none; 
stroke:#000000; stroke-width:0.1200; stroke-opacity:1; 
stroke-linecap:round; stroke-linejoin:round;fill:none"
d="M 34.7572,8.9895
48.7572,8.9895
48.7572,22.9895
34.7572,22.9895
Z" /> 
<path style="fill:none; 
stroke:#000000; stroke-width:0.1200; stroke-opacity:1; 
stroke-linecap:round; stroke-linejoin:round;fill:none"
d="M 88.7563,37.4900
102.7563,37.4900
102.7563,51.4900
88.7563,51.4900
Z" /> 
<path style="fill:none; 
stroke:#000000; stroke-width:0.1200; stroke-opacity:1; 
stroke-linecap:round; stroke-linejoin:round;fill:none"
d="M 52.7562,19.4895
66.7562,19.4895
66.7562,33.4895
52.7562,33.4895
Z" /> 
<path style="fill:none; 
stroke:#000000; stroke-width:0.1200; stroke-opacity:1; 
stroke-linecap:round; stroke-linejoin:round;fill:none"
d="M 70.7562,25.4900
84.7562,25.4900
84.7562,39.4900
70.7562,39.4900
Z" /> 
<path style="fill:none; 
stroke:#000000; stroke-width:0.1200; stroke-opacity:1; 
stroke-linecap:round; stroke-linejoin:round;fill:none"
d="M 88.7563,20.4900
102.7563,20.4900
102.7563,34.4900
88.7563,34.4900
Z" /> 
<path style="fill:none; 
stroke:#000000; stroke-width:0.1200; stroke-opacity:1; 
stroke-linecap:round; stroke-linejoin:round;fill:none"
d="M 70.7562,42.4900
84.7562,42.4900
84.7562,56.4900
70.7562,56.4900
Z" /> 
<path style="fill:none; 
stroke:#000000; stroke-width:0.1200; stroke-opacity:1; 
stroke-linecap:round; stroke-linejoin:round;fill:none"
d="M 88.7562,54.4900
102.7562,54.4900
102.7562,68.4900
88.7562,68.4900
Z" /> 
<path style="fill:none; 
stroke:#000000; stroke-width:0.1200; stroke-opacity:1; 
stroke-linecap:round; stroke-linejoin:round;fill:none"
d="M 52.7563,2.4895
66.7563,2.4895
66.7563,16.4895
52.7563,16.4895
Z" /> 
<path style="fill:none; 
stroke:#000000; stroke-width:0.1200; stroke-opacity:1; 
stroke-linecap:round; stroke-linejoin:round;fill:none"
d="M 16.7562,28.4895
30.7562,28.4895
30.7562,42.4895
16.7562,42.4895
Z" /> 
<path style="fill:none; 
stroke:#000000; stroke-width:0.1200; stroke-opacity:1; 
stroke-linecap:round; stroke-linejoin:round;fill:none"
d="M 40.4304,75.1390
26.9075,78.7624
23.2840,65.2395
36.8070,61.6160
Z" /> 
<path style="fill:none; 
stroke:#000000; stroke-width:0.1200; stroke-opacity:1; 
stroke-linecap:round; stroke-linejoin:round;fill:none"
d="M 16.7562,11.4895
30.7562,11.4895
30.7562,25.4895
16.7562,25.4895
Z" /> 
<path style="fill:none; 
stroke:#000000; stroke-width:0.1200; stroke-opacity:1; 
stroke-linecap:round; stroke-linejoin:round;fill:none"
d="M 34.7573,42.9895
48.7573,42.9895
48.7573,56.9895
34.7573,56.9895
Z" /> 
<path style="fill:none; 
stroke:#000000; stroke-width:0.1200; stroke-opacity:1; 
stroke-linecap:round; stroke-linejoin:round;fill:none"
d="M 70.7563,8.4900
84.7563,8.4900
84.7563,22.4900
70.7563,22.4900
Z" /> 
<path style="fill:none; 
stroke:#000000; stroke-width:0.1200; stroke-opacity:1; 
stroke-linecap:round; stroke-linejoin:round;fill:none"
d="M 22.8815,80.4303
10.7571,87.4303
3.7571,75.3060
15.8815,68.3060
Z" /> 
<path style="fill:none; 
stroke:#000000; stroke-width:0.1200; stroke-opacity:1; 
stroke-linecap:round; stroke-linejoin:round;fill:none"
d="M 34.7573,25.9895
48.7573,25.9895
48.7573,39.9895
34.7573,39.9895
Z" /> 
<path style="fill:none; 
stroke:#000000; stroke-width:0.1200; stroke-opacity:1; 
stroke-linecap:round; stroke-linejoin:round;fill:none"
d="M 52.7562,36.4895
66.7562,36.4895
66.7562,50.4895
52.7562,50.4895
Z" /> 
<path style="fill:none; 
stroke:#000000; stroke-width:0.1200; stroke-opacity:1; 
stroke-linecap:round; stroke-linejoin:round;fill:none"
d="M 16.7562,45.4895
30.7562,45.4895
30.7562,59.4895
16.7562,59.4895
Z" /> 
</g> 
</svg>
